<?xml version="1.0" encoding="utf-8"?>
<svg xml:space="preserve" viewBox="0 0 100 100" y="0" x="0" xmlns="http://www.w3.org/2000/svg" id="Layer_1" version="1.1" style="height: 100%; width: 100%; background: none; shape-rendering: auto; animation-play-state: running; animation-delay: 0s;" width="128px" height="128px"><g class="ldl-scale" style="transform-origin: 50% 50%; transform: rotate(0deg) scale(0.8, 0.8); animation-play-state: running; animation-delay: 0s;"><g class="ldl-ani" style="animation-play-state: running; animation-delay: 0s;"><g class="ldl-layer" style="animation-play-state: running; animation-delay: 0s;"><g class="ldl-ani" style="transform-origin: 50px 50px; transform: matrix(1, 0, 0, 1, 0, 14.925); opacity: 0.05; animation: 1.11111s linear 0.37037s 1 normal forwards running float-btt-in-683ea492-ec03-4856-bc11-a436db85626e;"><path fill="#323232" d="M50 78.902c-.499 0-.998-.2-1.365-.601l-31.21-25.24h-5.568c-1.612 0-2.455 1.916-1.365 3.104l38.144 32.803c.367.4.866.601 1.365.601s.998-.2 1.365-.601L89.51 56.165c1.089-1.188.247-3.104-1.365-3.104h-5.568l-31.21 25.24a1.85 1.85 0 0 1-1.367.601z" id="XMLID_787_" style="fill: rgb(247, 216, 180); animation-play-state: running; animation-delay: 0s;"></path></g></g><g class="ldl-layer" style="animation-play-state: running; animation-delay: 0s;"><g class="ldl-ani" style="transform-origin: 50px 50px; transform: matrix(1, 0, 0, 1, 0, 14.925); opacity: 0.05; animation: 1.11111s linear 0.185185s 1 normal forwards running float-btt-in-683ea492-ec03-4856-bc11-a436db85626e;"><path fill="#999998" d="M50 57.569c-.499 0-.998-.2-1.365-.601l-31.21-25.24h-5.568c-1.612 0-2.455 1.916-1.365 3.104l38.144 32.803c.367.4.866.601 1.365.601s.998-.2 1.365-.601L89.51 34.832c1.089-1.188.247-3.104-1.365-3.104h-5.568l-31.21 25.24a1.85 1.85 0 0 1-1.367.601z" id="XMLID_786_" style="fill: rgb(237, 184, 112); animation-play-state: running; animation-delay: 0s;"></path></g></g><g class="ldl-layer" style="animation-play-state: running; animation-delay: 0s;"><g class="ldl-ani" style="transform-origin: 50px 50px; transform: matrix(1, 0, 0, 1, 0, 14.925); opacity: 0.05; animation: 1.11111s linear 0s 1 normal forwards running float-btt-in-683ea492-ec03-4856-bc11-a436db85626e;"><path fill="#cccccb" d="M50 36.21c-.499 0-.998-.2-1.365-.601l-31.21-25.24h-5.568c-1.612 0-2.455 1.916-1.365 3.104l38.144 32.803c.367.4.866.601 1.365.601s.998-.2 1.365-.601L89.51 13.473c1.089-1.188.247-3.104-1.365-3.104h-5.568l-31.21 25.24A1.85 1.85 0 0 1 50 36.21z" id="XMLID_785_" style="fill: rgb(253, 244, 175); animation-play-state: running; animation-delay: 0s;"></path></g></g><metadata xmlns:d="https://loading.io/stock/" style="animation-play-state: running; animation-delay: 0s;">
<d:name style="animation-play-state: running; animation-delay: 0s;">down</d:name>
<d:tags style="animation-play-state: running; animation-delay: 0s;">south,download,bottom,direction,way,dart,chevron,down,arrow</d:tags>
<d:license style="animation-play-state: running; animation-delay: 0s;">by</d:license>
<d:slug style="animation-play-state: running; animation-delay: 0s;">lq510q</d:slug>
</metadata></g></g><style id="float-btt-in-683ea492-ec03-4856-bc11-a436db85626e" data-anikit="">@keyframes float-btt-in-683ea492-ec03-4856-bc11-a436db85626e
{
  0% {
    animation-timing-function: cubic-bezier(0.2242,0.7499,0.3142,0.8148);
    transform: translate(0px,14.925px) rotate(0deg) scale(1,1) skewX(0deg) skewY(0deg);
    opacity: 0.05;
  }
  100% {
    transform: translate(0px,0px) rotate(0deg) scale(1,1) skewX(0deg) skewY(0deg);
    opacity: 1;
  }
}</style><!-- [ldio] generated by https://loading.io/ --></svg>