<?xml version="1.0" encoding="utf-8"?>
<svg xml:space="preserve" viewBox="0 0 100 100" y="0" x="0" xmlns="http://www.w3.org/2000/svg" id="圖層_1" version="1.1" style="height: 100%; width: 100%; background: none; shape-rendering: auto; animation-play-state: running; animation-delay: 0s;" width="128px" height="128px"><g class="ldl-scale" style="transform-origin: 50% 50%; transform: rotate(0deg) scale(0.8, 0.8); animation-play-state: running; animation-delay: 0s;"><g class="ldl-ani" style="animation-play-state: running; animation-delay: 0s;"><g class="ldl-layer" style="animation-play-state: running; animation-delay: 0s;"><g class="ldl-ani" style="transform: scale(0.91); transform-origin: 50px 50px; animation: 1.11111s linear -0.634921s infinite normal forwards running breath-91945579-9aa7-4fab-83f6-31321ffad89c;"><path fill="#f47e60" d="M37.328 76.238L24.11 63.019c-.99-.99-.57-2.677.768-3.088l6.991-2.145 10.693 10.693-2.145 6.991a1.858 1.858 0 0 1-3.089.768z" style="fill: rgb(228, 147, 75); animation-play-state: running; animation-delay: 0s;"></path></g></g><g class="ldl-layer" style="animation-play-state: running; animation-delay: 0s;"><g class="ldl-ani" style="transform: scale(0.91); transform-origin: 50px 50px; animation: 1.11111s linear -0.714286s infinite normal forwards running breath-91945579-9aa7-4fab-83f6-31321ffad89c;"><path fill="#e15b64" d="M52.584 92.847c0 .001 0 0 0 0 7.624-6.472 4.221-13.342-.219-19.324a6.576 6.576 0 0 1-.111-7.694l6.924-9.889c2.434-3.476 7.744-2.923 9.408.981 5.571 13.074 4.055 30.146-16.002 35.926z" style="fill: rgb(226, 187, 139); animation-play-state: running; animation-delay: 0s;"></path></g></g><g class="ldl-layer" style="animation-play-state: running; animation-delay: 0s;"><g class="ldl-ani" style="transform: scale(0.91); transform-origin: 50px 50px; animation: 1.11111s linear -0.793651s infinite normal forwards running breath-91945579-9aa7-4fab-83f6-31321ffad89c;"><path fill="#e15b64" d="M7.501 47.763c-.001.001-.001.001 0 0 6.472-7.624 13.342-4.221 19.324.219a6.576 6.576 0 0 0 7.694.111l9.889-6.924c3.476-2.434 2.923-7.744-.981-9.408-13.074-5.571-30.146-4.054-35.926 16.002z" style="fill: rgb(226, 187, 139); animation-play-state: running; animation-delay: 0s;"></path></g></g><g class="ldl-layer" style="animation-play-state: running; animation-delay: 0s;"><g class="ldl-ani" style="transform: scale(0.91); transform-origin: 50px 50px; animation: 1.11111s linear -0.873016s infinite normal forwards running breath-91945579-9aa7-4fab-83f6-31321ffad89c;"><path fill="#e0e0e0" d="M76.207 56.895C65.609 67.492 52.078 72.009 42.368 69.106L31.243 57.984c-2.906-9.71 1.611-23.244 12.21-33.843C62.034 5.56 86.491 5.242 90.4 9.151s3.975 29.576-14.193 47.744z" style="fill: rgb(223, 19, 23); animation-play-state: running; animation-delay: 0s;"></path></g></g><g class="ldl-layer" style="animation-play-state: running; animation-delay: 0s;"><g class="ldl-ani" style="transform: scale(0.91); transform-origin: 50px 50px; animation: 1.11111s linear -0.952381s infinite normal forwards running breath-91945579-9aa7-4fab-83f6-31321ffad89c;"><circle r="8.431" fill="#77a4bd" cy="30.841" cx="69.507" transform="rotate(-45.001 69.507 30.842)" style="fill: rgb(225, 231, 231); animation-play-state: running; animation-delay: 0s;"></circle></g></g><g class="ldl-layer" style="animation-play-state: running; animation-delay: 0s;"><g class="ldl-ani" style="transform: scale(0.91); transform-origin: 50px 50px; animation: 1.11111s linear -1.03175s infinite normal forwards running breath-91945579-9aa7-4fab-83f6-31321ffad89c;"><path fill="#f47e60" d="M90.4 9.151c-1.972-1.972-9.18-2.864-18.223-.88l19.405 19.405c1.766-9.177.772-16.571-1.182-18.525z" style="fill: rgb(228, 147, 75); animation-play-state: running; animation-delay: 0s;"></path></g></g><g class="ldl-layer" style="animation-play-state: running; animation-delay: 0s;"><g class="ldl-ani" style="transform: scale(0.91); transform-origin: 50px 50px; animation: 1.11111s linear -1.11111s infinite normal forwards running breath-91945579-9aa7-4fab-83f6-31321ffad89c;"><path d="M26.51 87.355l7.413-14.523-3.204-3.203-.111-.112-3.203-3.203-14.524 7.413 6.402 1.179-6.402 12.339-.352.351.232-.12-.12.231.351-.351 12.338-6.403z" fill="#c33737" style="fill: rgb(145, 188, 198); animation-play-state: running; animation-delay: 0s;"></path></g></g><metadata xmlns:d="https://loading.io/stock/" style="animation-play-state: running; animation-delay: 0s;"><d:name style="animation-play-state: running; animation-delay: 0s;">rocket</d:name><d:tags style="animation-play-state: running; animation-delay: 0s;">space shuttle,missile,space,travel,fire,take off,rocket,business</d:tags><d:license style="animation-play-state: running; animation-delay: 0s;">pro</d:license><d:slug style="animation-play-state: running; animation-delay: 0s;">pn885j</d:slug></metadata></g></g><style id="breath-91945579-9aa7-4fab-83f6-31321ffad89c" data-anikit="">@keyframes breath-91945579-9aa7-4fab-83f6-31321ffad89c
{
  0% {
    animation-timing-function: cubic-bezier(0.9647,0.2413,-0.0705,0.7911);
    transform: scale(0.9099999999999999);
  }
  51% {
    animation-timing-function: cubic-bezier(0.9226,0.2631,-0.0308,0.7628);
    transform: scale(1.02994);
  }
  100% {
    transform: scale(0.9099999999999999);
  }
}</style><!-- [ldio] generated by https://loading.io/ --></svg>